<svg width="752" height="1591" viewBox="0 0 752 1591" fill="none" xmlns="http://www.w3.org/2000/svg">
<g filter="url(#filter0_f_39_308)">
<path d="M-154.07 1807.87C-277.348 1551.87 434.072 1506.9 255.43 1308.37C17.43 1043.87 494.884 1075.75 483.93 938.366C459.93 637.366 64.43 843.866 83.93 679.866C103.43 515.866 -134.57 234.366 -307.57 270.366" stroke="#62ABBB" stroke-opacity="0.59" stroke-width="200"/>
</g>
<path d="M-154.07 1807.87C-277.348 1551.87 434.072 1506.9 255.43 1308.37C17.43 1043.87 494.884 1075.75 483.93 938.366C459.93 637.366 64.43 843.866 83.93 679.866C103.43 515.866 -134.57 234.366 -307.57 270.366" stroke="white" stroke-opacity="0.3"/>
<path d="M-171.756 1807.87C-295.034 1551.87 416.386 1506.9 237.744 1308.37C-0.255976 1043.87 477.198 1075.75 466.244 938.366C442.244 637.366 46.744 843.866 66.244 679.866C85.744 515.866 -152.256 234.366 -325.256 270.366" stroke="white" stroke-opacity="0.3"/>
<path d="M-189.442 1807.87C-312.72 1551.87 398.7 1506.9 220.058 1308.37C-17.9419 1043.87 459.512 1075.75 448.558 938.366C424.558 637.366 29.058 843.866 48.558 679.866C68.058 515.866 -169.942 234.366 -342.942 270.366" stroke="white" stroke-opacity="0.3"/>
<path d="M-207.128 1807.87C-330.406 1551.87 381.014 1506.9 202.372 1308.37C-35.6279 1043.87 441.826 1075.75 430.872 938.366C406.872 637.366 11.372 843.866 30.872 679.866C50.3721 515.866 -187.628 234.366 -360.628 270.366" stroke="white" stroke-opacity="0.3"/>
<path d="M-224.814 1807.87C-348.092 1551.87 363.328 1506.9 184.686 1308.37C-53.3139 1043.87 424.14 1075.75 413.186 938.366C389.186 637.366 -6.31394 843.866 13.1861 679.866C32.6861 515.866 -205.314 234.366 -378.314 270.366" stroke="white" stroke-opacity="0.3"/>
<path d="M-242.5 1807.87C-365.778 1551.87 345.642 1506.9 167 1308.37C-70.9999 1043.87 406.454 1075.75 395.5 938.366C371.5 637.366 -23.9999 843.866 -4.4999 679.866C15.0001 515.866 -223 234.366 -396 270.366" stroke="white" stroke-opacity="0.3"/>
<defs>
<filter id="filter0_f_39_308" x="-495.143" y="0.000198364" width="1246.47" height="2018.45" filterUnits="userSpaceOnUse" color-interpolation-filters="sRGB">
<feFlood flood-opacity="0" result="BackgroundImageFix"/>
<feBlend mode="normal" in="SourceGraphic" in2="BackgroundImageFix" result="shape"/>
<feGaussianBlur stdDeviation="83.6" result="effect1_foregroundBlur_39_308"/>
</filter>
</defs>
</svg>
