<svg width="375" height="1063" viewBox="0 0 375 1063" fill="none" xmlns="http://www.w3.org/2000/svg">
<g filter="url(#filter0_f_47_1244)">
<path d="M79.9145 -532.305C18.0116 -481.401 -95.575 -349.233 -54.6984 -227.798C-3.60255 -76.0038 81.2682 12.1861 210.336 60.5125C339.404 108.839 436.056 337.945 344.765 475.576C253.475 613.207 404.115 815.232 574.784 861.028" stroke="#62ABBB" stroke-opacity="0.59" stroke-width="70"/>
</g>
<path d="M79.9146 -532.305C18.0116 -481.401 -97.1574 -356.752 -54.6984 -227.798C-9.58564 -90.7839 44.726 -23.0547 210.336 60.5125C355.859 133.943 471.328 333.902 344.765 475.576C234.736 598.742 404.115 815.232 574.784 861.028" stroke="white" stroke-opacity="0.3"/>
<path d="M86.6719 -545.697C24.769 -494.792 -90.4 -370.144 -47.941 -241.19C-2.82832 -104.176 51.4833 -36.4464 217.094 47.1208C362.616 120.552 478.085 320.51 351.522 462.184C241.494 585.351 410.873 801.84 581.541 847.636" stroke="white" stroke-opacity="0.3"/>
<path d="M93.4295 -559.088C31.5265 -508.184 -83.6425 -383.536 -41.1835 -254.581C3.92925 -117.567 58.2409 -49.838 223.851 33.7291C369.374 107.16 484.843 307.118 358.28 448.793C248.251 571.959 417.63 788.448 588.299 834.244" stroke="white" stroke-opacity="0.3"/>
<path d="M100.187 -572.48C38.2839 -521.576 -76.8851 -396.927 -34.4261 -267.973C10.6866 -130.959 64.9982 -63.2297 230.609 20.3374C376.131 93.7684 491.6 293.727 365.037 435.401C255.009 558.567 424.388 775.057 595.056 820.853" stroke="white" stroke-opacity="0.3"/>
<path d="M106.944 -585.872C45.0414 -534.967 -70.1276 -410.319 -27.6686 -281.365C17.4441 -144.351 71.7558 -76.6214 237.366 6.94579C382.889 80.3767 498.358 280.335 371.795 422.009C261.766 545.176 431.145 761.665 601.814 807.461" stroke="white" stroke-opacity="0.3"/>
<defs>
<filter id="filter0_f_47_1244" x="-265.587" y="-726.539" width="1016.64" height="1788.57" filterUnits="userSpaceOnUse" color-interpolation-filters="sRGB">
<feFlood flood-opacity="0" result="BackgroundImageFix"/>
<feBlend mode="normal" in="SourceGraphic" in2="BackgroundImageFix" result="shape"/>
<feGaussianBlur stdDeviation="83.6" result="effect1_foregroundBlur_47_1244"/>
</filter>
</defs>
</svg>
